<svg xmlns="http://www.w3.org/2000/svg" width="256" height="256" viewBox="0 0 100 100"><rect width="100" height="100" rx="20" fill="#720000"></rect><path fill="#fff" d="M40.43 68.09L40.43 68.09Q40.07 68.21 39.47 68.36Q38.87 68.51 38.15 68.51L38.15 68.51Q35.51 68.51 35.51 66.29L35.51 66.29L35.51 51.77L16.79 51.77L16.79 68.09Q16.43 68.21 15.83 68.36Q15.23 68.51 14.51 68.51L14.51 68.51Q11.87 68.51 11.87 66.29L11.87 66.29L11.87 31.85Q12.17 31.73 12.80 31.58Q13.43 31.43 14.15 31.43L14.15 31.43Q16.79 31.43 16.79 33.65L16.79 33.65L16.79 47.69L35.51 47.69L35.51 31.85Q35.81 31.73 36.44 31.58Q37.07 31.43 37.79 31.43L37.79 31.43Q40.43 31.43 40.43 33.65L40.43 33.65L40.43 68.09ZM71.87 58.73L71.87 58.73Q71.45 59.03 70.76 59.27Q70.07 59.51 69.23 59.51L69.23 59.51Q68.27 59.51 67.52 59.21Q66.77 58.91 66.47 58.25L66.47 58.25Q63.23 51.53 60.89 45.95Q58.55 40.37 57.11 36.71L57.11 36.71L56.87 36.71Q56.69 41.21 56.48 45.08Q56.27 48.95 56.03 52.64Q55.79 56.33 55.55 60.11Q55.31 63.89 55.07 68.21L55.07 68.21Q54.71 68.33 54.14 68.45Q53.57 68.57 52.91 68.57L52.91 68.57Q51.59 68.57 51.05 68.03Q50.51 67.49 50.51 66.47L50.51 66.47Q50.51 65.87 50.60 63.89Q50.69 61.91 50.87 59.09Q51.05 56.27 51.26 52.85Q51.47 49.43 51.74 45.89Q52.01 42.35 52.28 38.93Q52.55 35.51 52.79 32.69L52.79 32.69Q53.27 32.27 54.17 31.91Q55.07 31.55 56.21 31.55L56.21 31.55Q58.97 31.55 60.05 33.77L60.05 33.77Q61.19 36.11 62.36 38.72Q63.53 41.33 64.70 44.03Q65.87 46.73 66.98 49.37Q68.09 52.01 69.11 54.41L69.11 54.41L69.35 54.41Q70.67 51.23 71.99 48.14Q73.31 45.05 74.57 42.17Q75.83 39.29 76.97 36.77Q78.11 34.25 79.01 32.15L79.01 32.15Q79.55 31.85 80.39 31.70Q81.23 31.55 81.95 31.55L81.95 31.55Q84.77 31.55 85.19 33.47L85.19 33.47Q85.43 34.55 85.73 37.04Q86.03 39.53 86.33 42.77Q86.63 46.01 86.90 49.73Q87.17 53.45 87.41 56.90Q87.65 60.35 87.83 63.26Q88.01 66.17 88.13 67.85L88.13 67.85Q87.05 68.57 85.61 68.57L85.61 68.57Q84.71 68.57 84.02 68.12Q83.33 67.67 83.21 66.47L83.21 66.47Q82.91 62.09 82.67 57.77Q82.43 53.45 82.22 49.55Q82.01 45.65 81.83 42.38Q81.65 39.11 81.53 36.83L81.53 36.83L81.29 36.83Q80.63 38.51 79.76 40.61Q78.89 42.71 77.72 45.35Q76.55 47.99 75.11 51.32Q73.67 54.65 71.87 58.73Z"></path></svg>